<mxfile modified="2022-12-13T10:15:37.745Z" host="app.diagrams.net" agent="5.0 (X11)" etag="w3lU6gjAQqEKJMD_DyjI" version="20.6.2" type="github">
  <diagram id="Ht1M8jgEwFfnCIfOTk4-" name="Page-1">
    <mxGraphModel dx="1422" dy="1586" grid="1" gridSize="10" guides="1" tooltips="1" connect="1" arrows="1" fold="1" page="1" pageScale="1" pageWidth="1169" pageHeight="827" math="0" shadow="0">
      <root>
        <mxCell id="0" />
        <mxCell id="1" parent="0" />
        <mxCell id="xgc6DM9Copx6KXdF2zNQ-16" value="" style="rounded=0;whiteSpace=wrap;html=1;dashed=1;strokeWidth=5;fillColor=none;" vertex="1" parent="1">
          <mxGeometry x="419" y="-305" width="443" height="166" as="geometry" />
        </mxCell>
        <mxCell id="6ciUN1QbZPSy4jL6s6Ek-6" value="" style="rounded=1;whiteSpace=wrap;html=1;strokeWidth=3;fontSize=30;fillColor=none;strokeColor=#FF5314;" parent="1" vertex="1">
          <mxGeometry x="75" y="-530" width="1020" height="1100" as="geometry" />
        </mxCell>
        <mxCell id="xgc6DM9Copx6KXdF2zNQ-7" value="" style="rounded=0;whiteSpace=wrap;html=1;dashed=1;strokeWidth=5;fillColor=none;" vertex="1" parent="1">
          <mxGeometry x="419" y="111" width="443" height="399" as="geometry" />
        </mxCell>
        <mxCell id="6ciUN1QbZPSy4jL6s6Ek-3" value="" style="rounded=0;whiteSpace=wrap;html=1;dashed=1;strokeWidth=5;fillColor=none;" parent="1" vertex="1">
          <mxGeometry x="419" y="-89" width="443" height="166" as="geometry" />
        </mxCell>
        <mxCell id="UEzPUAAOIrF-is8g5C7q-109" value="&lt;div&gt;Client&lt;/div&gt;&lt;div&gt;&lt;br&gt;&lt;/div&gt;" style="outlineConnect=0;gradientColor=none;fontColor=#545B64;strokeColor=none;fillColor=#879196;dashed=0;verticalLabelPosition=bottom;verticalAlign=top;align=center;html=1;fontSize=12;fontStyle=0;aspect=fixed;shape=mxgraph.aws4.illustration_desktop;pointerEvents=1;labelBackgroundColor=#ffffff;" parent="1" vertex="1">
          <mxGeometry x="195" y="-50" width="100" height="91" as="geometry" />
        </mxCell>
        <mxCell id="Y8FRlR6LI_EW2aDHlQSC-1" value="" style="sketch=0;outlineConnect=0;fontColor=#232F3E;gradientColor=none;fillColor=#2E27AD;strokeColor=none;dashed=0;verticalLabelPosition=bottom;verticalAlign=top;align=center;html=1;fontSize=12;fontStyle=0;aspect=fixed;pointerEvents=1;shape=mxgraph.aws4.rds_postgresql_instance_alt;" parent="1" vertex="1">
          <mxGeometry x="724" y="-48.5" width="80" height="80" as="geometry" />
        </mxCell>
        <mxCell id="Y8FRlR6LI_EW2aDHlQSC-2" value="" style="dashed=0;outlineConnect=0;html=1;align=center;labelPosition=center;verticalLabelPosition=bottom;verticalAlign=top;shape=mxgraph.webicons.apache;gradientColor=#DFDEDE" parent="1" vertex="1">
          <mxGeometry x="477" y="-48.5" width="80" height="80" as="geometry" />
        </mxCell>
        <mxCell id="6ciUN1QbZPSy4jL6s6Ek-1" value="" style="shape=image;html=1;verticalAlign=top;verticalLabelPosition=bottom;labelBackgroundColor=#ffffff;imageAspect=0;aspect=fixed;image=https://cdn2.iconfinder.com/data/icons/boxicons-logos/24/bxl-django-128.png" parent="1" vertex="1">
          <mxGeometry x="587" y="-50" width="88" height="88" as="geometry" />
        </mxCell>
        <mxCell id="6ciUN1QbZPSy4jL6s6Ek-4" value="" style="endArrow=classic;startArrow=classic;html=1;rounded=1;entryX=-0.01;entryY=0.504;entryDx=0;entryDy=0;entryPerimeter=0;jumpSize=60;strokeColor=default;sketch=0;strokeWidth=4;" parent="1" target="6ciUN1QbZPSy4jL6s6Ek-3" edge="1">
          <mxGeometry width="50" height="50" relative="1" as="geometry">
            <mxPoint x="302" y="-5" as="sourcePoint" />
            <mxPoint x="362" y="-40" as="targetPoint" />
          </mxGeometry>
        </mxCell>
        <mxCell id="6ciUN1QbZPSy4jL6s6Ek-5" value="https" style="edgeLabel;html=1;align=center;verticalAlign=middle;resizable=0;points=[];fontSize=30;" parent="6ciUN1QbZPSy4jL6s6Ek-4" vertex="1" connectable="0">
          <mxGeometry x="-0.1285" y="-2" relative="1" as="geometry">
            <mxPoint x="7" y="-1" as="offset" />
          </mxGeometry>
        </mxCell>
        <mxCell id="6ciUN1QbZPSy4jL6s6Ek-7" value="&lt;font color=&quot;#FF642B&quot;&gt;Draw.io&lt;/font&gt;" style="text;html=1;align=center;verticalAlign=middle;resizable=0;points=[];autosize=1;strokeColor=none;fillColor=none;fontSize=30;" parent="1" vertex="1">
          <mxGeometry x="185" y="-380" width="120" height="50" as="geometry" />
        </mxCell>
        <mxCell id="xgc6DM9Copx6KXdF2zNQ-2" value="" style="shape=image;html=1;verticalAlign=top;verticalLabelPosition=bottom;labelBackgroundColor=#ffffff;imageAspect=0;aspect=fixed;image=https://cdn1.iconfinder.com/data/icons/unicons-line-vol-5/24/react-128.png" vertex="1" parent="1">
          <mxGeometry x="664" y="1" width="40" height="40" as="geometry" />
        </mxCell>
        <mxCell id="xgc6DM9Copx6KXdF2zNQ-11" value="" style="edgeStyle=orthogonalEdgeStyle;rounded=0;orthogonalLoop=1;jettySize=auto;html=1;strokeWidth=6;fontSize=30;fontColor=#FF6E42;exitX=1;exitY=0.5;exitDx=0;exitDy=0;exitPerimeter=0;" edge="1" parent="1" source="xgc6DM9Copx6KXdF2zNQ-3" target="xgc6DM9Copx6KXdF2zNQ-5">
          <mxGeometry relative="1" as="geometry" />
        </mxCell>
        <mxCell id="xgc6DM9Copx6KXdF2zNQ-13" style="edgeStyle=orthogonalEdgeStyle;rounded=0;orthogonalLoop=1;jettySize=auto;html=1;strokeWidth=6;fontSize=30;fontColor=#FF6E42;" edge="1" parent="1" source="xgc6DM9Copx6KXdF2zNQ-3" target="xgc6DM9Copx6KXdF2zNQ-4">
          <mxGeometry relative="1" as="geometry" />
        </mxCell>
        <mxCell id="xgc6DM9Copx6KXdF2zNQ-3" value="" style="outlineConnect=0;dashed=0;verticalLabelPosition=bottom;verticalAlign=top;align=center;html=1;shape=mxgraph.aws3.android;fillColor=#205E00;gradientColor=none;" vertex="1" parent="1">
          <mxGeometry x="617" y="274" width="38.5" height="44" as="geometry" />
        </mxCell>
        <mxCell id="xgc6DM9Copx6KXdF2zNQ-4" value="" style="shape=image;html=1;verticalAlign=top;verticalLabelPosition=bottom;labelBackgroundColor=#ffffff;imageAspect=0;aspect=fixed;image=https://cdn1.iconfinder.com/data/icons/bootstrap-vol-3/16/filetype-js-128.png" vertex="1" parent="1">
          <mxGeometry x="565" y="190" width="46" height="46" as="geometry" />
        </mxCell>
        <mxCell id="xgc6DM9Copx6KXdF2zNQ-5" value="" style="shape=image;html=1;verticalAlign=top;verticalLabelPosition=bottom;labelBackgroundColor=#ffffff;imageAspect=0;aspect=fixed;image=https://cdn1.iconfinder.com/data/icons/bootstrap-vol-3/16/filetype-scss-128.png" vertex="1" parent="1">
          <mxGeometry x="659.25" y="190" width="46" height="46" as="geometry" />
        </mxCell>
        <mxCell id="xgc6DM9Copx6KXdF2zNQ-9" style="edgeStyle=orthogonalEdgeStyle;rounded=0;orthogonalLoop=1;jettySize=auto;html=1;exitX=0.5;exitY=0;exitDx=0;exitDy=0;entryX=0.5;entryY=1;entryDx=0;entryDy=0;entryPerimeter=0;fontSize=30;fontColor=#FF6E42;strokeWidth=6;" edge="1" parent="1" source="xgc6DM9Copx6KXdF2zNQ-6" target="xgc6DM9Copx6KXdF2zNQ-3">
          <mxGeometry relative="1" as="geometry" />
        </mxCell>
        <mxCell id="xgc6DM9Copx6KXdF2zNQ-6" value="" style="shape=image;html=1;verticalAlign=top;verticalLabelPosition=bottom;labelBackgroundColor=#ffffff;imageAspect=0;aspect=fixed;image=https://cdn1.iconfinder.com/data/icons/bootstrap-vol-3/16/filetype-jsx-128.png" vertex="1" parent="1">
          <mxGeometry x="613.25" y="402" width="46" height="46" as="geometry" />
        </mxCell>
        <mxCell id="xgc6DM9Copx6KXdF2zNQ-8" value="&lt;div style=&quot;font-size: 30px;&quot;&gt;&lt;font style=&quot;font-size: 30px;&quot; color=&quot;#FF6E42&quot;&gt;Babel transpiles the &lt;br&gt;&lt;/font&gt;&lt;/div&gt;&lt;div style=&quot;font-size: 30px;&quot;&gt;&lt;font style=&quot;font-size: 30px;&quot; color=&quot;#FF6E42&quot;&gt;.jsx into .js and &lt;br&gt;&lt;/font&gt;&lt;/div&gt;&lt;div style=&quot;font-size: 30px;&quot;&gt;&lt;font style=&quot;font-size: 30px;&quot; color=&quot;#FF6E42&quot;&gt;Webpack then &lt;br&gt;&lt;/font&gt;&lt;/div&gt;&lt;div style=&quot;font-size: 30px;&quot;&gt;&lt;font style=&quot;font-size: 30px;&quot; color=&quot;#FF6E42&quot;&gt;bundles all &lt;br&gt;&lt;/font&gt;&lt;/div&gt;&lt;div style=&quot;font-size: 30px;&quot;&gt;&lt;font style=&quot;font-size: 30px;&quot; color=&quot;#FF6E42&quot;&gt;of the .js files and &lt;br&gt;&lt;/font&gt;&lt;/div&gt;&lt;div style=&quot;font-size: 30px;&quot;&gt;&lt;font style=&quot;font-size: 30px;&quot; color=&quot;#FF6E42&quot;&gt;the index.scss &lt;br&gt;&lt;/font&gt;&lt;/div&gt;&lt;div style=&quot;font-size: 30px;&quot;&gt;&lt;font style=&quot;font-size: 30px;&quot; color=&quot;#FF6E42&quot;&gt;into two files&lt;/font&gt;&lt;/div&gt;" style="text;html=1;align=center;verticalAlign=middle;resizable=0;points=[];autosize=1;strokeColor=none;fillColor=none;fontColor=#FF6E42;labelBackgroundColor=default;" vertex="1" parent="1">
          <mxGeometry x="742" y="236" width="290" height="270" as="geometry" />
        </mxCell>
        <mxCell id="xgc6DM9Copx6KXdF2zNQ-10" value="&lt;div&gt;&lt;font style=&quot;font-size: 30px;&quot;&gt;The front end is &lt;br&gt;&lt;/font&gt;&lt;/div&gt;&lt;div&gt;&lt;font style=&quot;font-size: 30px;&quot;&gt;integrated into django&lt;/font&gt;&lt;/div&gt;&lt;div&gt;&lt;font style=&quot;font-size: 30px;&quot;&gt;&amp;nbsp;as an &quot;app&quot;. It&#39;s static &lt;br&gt;&lt;/font&gt;&lt;/div&gt;&lt;div&gt;&lt;font style=&quot;font-size: 30px;&quot;&gt;files then get fed &lt;br&gt;&lt;/font&gt;&lt;/div&gt;&lt;div&gt;&lt;font style=&quot;font-size: 30px;&quot;&gt;into the main static &lt;br&gt;&lt;/font&gt;&lt;/div&gt;&lt;div&gt;&lt;font style=&quot;font-size: 30px;&quot;&gt;folder with the &lt;br&gt;&lt;/font&gt;&lt;/div&gt;&lt;div&gt;&lt;font style=&quot;font-size: 30px;&quot;&gt;collectstatic command&lt;/font&gt;&lt;/div&gt;" style="text;html=1;align=center;verticalAlign=middle;resizable=0;points=[];autosize=1;strokeColor=none;fillColor=none;fontColor=#FF6E42;labelBackgroundColor=default;" vertex="1" parent="1">
          <mxGeometry x="195" y="110" width="320" height="270" as="geometry" />
        </mxCell>
        <mxCell id="xgc6DM9Copx6KXdF2zNQ-15" value="" style="aspect=fixed;html=1;points=[];align=center;image;fontSize=12;image=img/lib/azure2/integration/SendGrid_Accounts.svg;labelBackgroundColor=default;fontColor=#FF6E42;" vertex="1" parent="1">
          <mxGeometry x="587" y="-238" width="66.8" height="68" as="geometry" />
        </mxCell>
        <mxCell id="xgc6DM9Copx6KXdF2zNQ-17" value="Sendgrid email server" style="text;html=1;align=center;verticalAlign=middle;resizable=0;points=[];autosize=1;strokeColor=none;fillColor=none;fontSize=30;fontColor=#FF6E42;" vertex="1" parent="1">
          <mxGeometry x="460.4" y="-290" width="320" height="50" as="geometry" />
        </mxCell>
      </root>
    </mxGraphModel>
  </diagram>
</mxfile>
